#tb 0: 1/1000
0,          0,          0,        0,     1734, 0xd1507d72
0,         40,         40,        0,     1734, 0x27eb6b01
0,         80,         80,        0,     1734, 0x52b1814b
0,        120,        120,        0,     1734, 0xc40d7d29
0,        160,        160,        0,     1734, 0xb46195f9
0,        200,        200,        0,     1734, 0xe920749d
0,        240,        240,        0,     1734, 0x100b7317
0,        280,        280,        0,     1734, 0xd0dc5df7
0,        320,        320,        0,     1734, 0x861361f1
0,        360,        360,        0,     1734, 0xda6d882e
0,        400,        400,        0,     1734, 0x6f4f5737
0,        440,        440,        0,     1734, 0x959a3c07
0,        480,        480,        0,     1734, 0x53f1463e
0,        520,        520,        0,     1734, 0xbbcd5c42
0,        560,        560,        0,     1734, 0xf5be4a1c
0,        600,        600,        0,     1734, 0xcc0d8dbd
0,        640,        640,        0,     1734, 0xd84d8734
0,        680,        680,        0,     1734, 0xf26677cf
0,        720,        720,        0,     1734, 0x79ce7b6a
0,        760,        760,        0,     1734, 0xd11892fb
0,        800,        800,        0,     1734, 0xa2bb8052
0,        840,        840,        0,     1734, 0xcb7c92f2
0,        880,        880,        0,     1734, 0xf3738110
0,        920,        920,        0,     1734, 0x54988f51
0,        960,        960,        0,     1734, 0x51e18e6e
0,       1000,       1000,        0,     1734, 0x51ce8235
0,       1040,       1040,        0,     1734, 0x2abf9110
0,       1080,       1080,        0,     1734, 0x148e809f
0,       1120,       1120,        0,     1734, 0xe6b67c79
0,       1160,       1160,        0,     1734, 0x71387646
0,       1200,       1200,        0,     1734, 0x106684d8
0,       1240,       1240,        0,     1734, 0xc3ac7147
0,       1280,       1280,        0,     1734, 0xe4f45816
0,       1320,       1320,        0,     1734, 0x35ef3f16
0,       1360,       1360,        0,     1734, 0x80f77c6c
0,       1400,       1400,        0,     1734, 0x2a456a0b
0,       1440,       1440,        0,     1734, 0x7ff95e2e
0,       1480,       1480,        0,     1734, 0x04405050
0,       1520,       1520,        0,     1734, 0xbabf44a4
0,       1560,       1560,        0,     1734, 0x94d55b88
0,       1600,       1600,        0,     1734, 0x25c76efd
0,       1640,       1640,        0,     1734, 0x82427ee5
0,       1680,       1680,        0,     1734, 0x0b277131
0,       1720,       1720,        0,     1734, 0xf5f3623f
0,       1760,       1760,        0,     1734, 0x551d5792
0,       1800,       1800,        0,     1734, 0x4761525b
0,       1840,       1840,        0,     1734, 0x862155cb
0,       1880,       1880,        0,     1734, 0xfb4460c5
0,       1920,       1920,        0,     1734, 0xda45502c
0,       1960,       1960,        0,     1734, 0x03265e69
